<svg xmlns="http://www.w3.org/2000/svg" width="282.639" height="101.08"><g data-name="Group 37"><g data-name="Group 35"><path data-name="Path 34" d="M282.639 6.476v61.286c0 8.963-6.71 17.269-19.991 24.73a111.652 111.652 0 01-18.536 8.165l-1.361.422-1.361-.422a111.651 111.651 0 01-18.536-8.165c-13.237-7.461-19.99-15.767-19.99-24.73V17.175c1.549-.563 3.144-1.126 4.693-1.6a281.303 281.303 0 015.021-1.5 70.693 70.693 0 015.021-1.22 114.946 114.946 0 0125.106-2.722 117.893 117.893 0 0125.106 2.722c1.6.328 3.144.751 4.646 1.126v53.781c0 4.88-5.256 10.559-14.829 15.955a103.014 103.014 0 01-14.923 6.757 102.283 102.283 0 01-15.063-6.8c-9.479-5.35-14.688-11.028-14.688-15.861V24.449c1.361-.375 2.722-.751 4.036-1.079v44.392c0 1.314.939 3.05 2.675 4.927a42.08 42.08 0 0010 7.414 96.53 96.53 0 0012.9 5.96l.188.047.188-.047a97.576 97.576 0 0012.764-5.913 40.72 40.72 0 0010.089-7.508c1.689-1.877 2.675-3.66 2.675-4.927V17.128l-.375-.094a111.808 111.808 0 00-50.681 0c-1.689.375-3.379.845-5.068 1.314s-3.379.985-5.068 1.549l-.328.094v47.724c0 7.367 6.007 14.547 17.926 21.211a114.2 114.2 0 0017.738 7.837l.141.047.141-.047a107.243 107.243 0 0017.738-7.837c11.872-6.711 17.926-13.843 17.926-21.211V9.385l-.375-.094q-2.467-.774-5.067-1.407c-1.689-.422-3.426-.845-5.068-1.173a123.491 123.491 0 00-50.681 0c-1.689.375-3.426.751-5.068 1.173a244.26 244.26 0 00-5.068 1.408c-1.408.422-2.909.892-4.411 1.408V6.429c1.6-.516 3.144-1.032 4.693-1.455 1.689-.469 3.379-.939 5.021-1.361s3.332-.8 5.021-1.126a128.667 128.667 0 0150.352 0c1.689.328 3.379.7 5.021 1.126s3.332.845 5.021 1.361c1.545.469 3.094.939 4.689 1.502z" fill="#fff"/><g data-name="Group 34"><path data-name="Path 35" d="M244.769 58.33c4.083-2.863 9.245-6.335 16.894-6.992-6.9-1.971-12.342 1.126-17.222 4.458a108.06 108.06 0 01-.563-17.644c1.736.985 3.848 2.863 5.256 7.931l.188.657.141-.657a10.988 10.988 0 00-3-9.526 6.459 6.459 0 012.675.7 13.444 13.444 0 015.4 4.927l.422.61-.141-.751a11.148 11.148 0 00-7.837-8.822c.094-.047 2.018-1.408 7.649.422l.516.188-.375-.422c-3.473-4.083-8.728-2.956-9.292-2.863a9.179 9.179 0 012.816-2.816l.516-.375-.657.094a7.925 7.925 0 00-4.787 2.206 8.622 8.622 0 00-.516-2.628l-.141-.328-.141.328a7.408 7.408 0 00-.516 2.628 7.658 7.658 0 00-4.787-2.206l-.657-.094.516.375a8.249 8.249 0 012.816 2.816c-.516-.141-5.819-1.22-9.291 2.863l-.375.422.516-.188c5.678-1.877 7.555-.516 7.649-.422a10.989 10.989 0 00-7.79 8.822l-.141.751.422-.61a14.217 14.217 0 015.4-4.927 6.746 6.746 0 012.628-.7 11.138 11.138 0 00-3 9.526l.141.657.188-.657c1.361-5.115 3.473-6.945 5.256-7.931a107.987 107.987 0 01-.563 17.644c-4.88-3.332-10.324-6.429-17.222-4.458 7.7.657 12.811 4.083 16.894 6.992a19.85 19.85 0 01-6.945 3.285c-.047 0-.047.047 0 .094 3.05 1.642 5.725.235 9.01-1.971 3.238 2.206 5.913 3.613 9.01 1.971.047 0 0-.094 0-.094a18.318 18.318 0 01-6.945-3.285" fill="#fff"/></g></g></g><g data-name="Group 38" fill="#fff"><path data-name="Path 43" d="M5.678 40.685a.124.124 0 00-.141.141v1.173a.124.124 0 00.141.141h1.079a.124.124 0 00.141-.141v-1.173a.124.124 0 00-.141-.141z"/><path data-name="Path 44" d="M3.754 40.685a.124.124 0 00-.141.141v1.173a.124.124 0 00.141.141h1.079a.124.124 0 00.141-.141v-1.173a.124.124 0 00-.141-.141z"/><path data-name="Path 45" d="M3.8 39.508h3.708a4.09 4.09 0 001.408-.188 3.5 3.5 0 00.939-.469 1.96 1.96 0 00.516-.7 2.383 2.383 0 00.141-.8 1.878 1.878 0 00-.422-1.267 5.542 5.542 0 00-1.315-1.076 6.113 6.113 0 01-.7-.469 6.9 6.9 0 01-.61-.469 1.467 1.467 0 01-.422-.516 1.334 1.334 0 01-.188-.563 1.212 1.212 0 01.422-.985 1.645 1.645 0 011.079-.328 2.1 2.1 0 011.032.235 2.269 2.269 0 01.751.61c.047.094.141.094.235 0l.7-.563c.094-.094.094-.141.047-.235a5.136 5.136 0 00-.469-.516 5.862 5.862 0 00-.563-.422c-.235-.094-.469-.188-.751-.282a5.858 5.858 0 00-.985-.094 3.139 3.139 0 00-1.22.235 2.422 2.422 0 00-.892.563 2.12 2.12 0 00-.516.8 2.237 2.237 0 00-.188.939 2.273 2.273 0 00.141.845 1.767 1.767 0 00.422.7 3.185 3.185 0 00.563.563c.188.141.469.328.7.469.563.328 1.032.657 1.361.892.328.282.516.516.516.751a.965.965 0 01-.375.7 2.271 2.271 0 01-1.314.282H3.989A3.572 3.572 0 013 38.008a2.319 2.319 0 01-.845-.375 2.078 2.078 0 01-.563-.7 2.447 2.447 0 01-.235-1.079 3.366 3.366 0 01.282-1.361 7.554 7.554 0 01.567-1.085c.047-.094.047-.141-.047-.188l-.892-.469a.209.209 0 00-.235 0 5.25 5.25 0 00-.7 1.455A5.279 5.279 0 000 36.086a3.288 3.288 0 00.985 2.534 3.831 3.831 0 002.815.888z"/><path data-name="Path 46" d="M15.861 30.784h-2.346a.124.124 0 00-.141.141v.939a.124.124 0 00.141.141h1.83c1.22 0 1.783.516 1.783 1.6v1.267a3.107 3.107 0 01-.047.7.884.884 0 01-.188.422.907.907 0 01-.422.235 2.84 2.84 0 01-.7.094h-3a.124.124 0 00-.141.141v.939a.124.124 0 00.141.141h3.52a3.225 3.225 0 001.032-.141 1.767 1.767 0 00.7-.422 1.785 1.785 0 00.422-.845 5.365 5.365 0 00.141-1.314v-1.22a2.747 2.747 0 00-.751-2.159 3.023 3.023 0 00-1.974-.659z"/><path data-name="Path 47" d="M22.384 37.588h18.442a1.629 1.629 0 001.642-.845 1.426 1.426 0 00.563.61 1.786 1.786 0 00.892.188h.751a1.63 1.63 0 001.643-.846 1.426 1.426 0 00.563.61 1.787 1.787 0 00.892.188h.751a1.761 1.761 0 001.408-.469 2.292 2.292 0 00.422-1.5v-4.318a.124.124 0 00-.141-.141h-1.033a.124.124 0 00-.141.141v4.223a.849.849 0 01-.188.657.748.748 0 01-.563.188h-.375a1.785 1.785 0 01-1.032-.282.882.882 0 01-.375-.8v-2.625a.124.124 0 00-.141-.141h-1.033a.124.124 0 00-.141.141v2.863a.849.849 0 01-.188.657.748.748 0 01-.563.188h-.328a1.785 1.785 0 01-1.032-.282.882.882 0 01-.375-.8v-2.626a.124.124 0 00-.141-.141H41.53a.124.124 0 00-.141.141v2.863a.849.849 0 01-.188.657.748.748 0 01-.563.188H22.713c-.282 0-.469-.047-.563-.188a.849.849 0 01-.188-.657v-8.494a.124.124 0 00-.141-.141h-1.032a.124.124 0 00-.141.141v8.635a2.208 2.208 0 00.422 1.5 1.447 1.447 0 001.314.517z"/><path data-name="Path 48" d="M46.176 28.203v1.173a.124.124 0 00.141.141h1.079a.124.124 0 00.141-.141v-1.173a.124.124 0 00-.141-.141h-1.079a.124.124 0 00-.141.141z"/><path data-name="Path 49" d="M44.393 29.517h1.079a.124.124 0 00.141-.141v-1.173a.124.124 0 00-.141-.141h-1.079a.124.124 0 00-.141.141v1.173a.124.124 0 00.141.141z"/><path data-name="Path 50" d="M45.378 27.687h1.079a.124.124 0 00.141-.141v-1.173a.124.124 0 00-.141-.141h-1.079a.124.124 0 00-.141.141v1.173a.15.15 0 00.141.141z"/><path data-name="Path 51" d="M51.666 40.732h.422a2.726 2.726 0 001.924-.657 2.693 2.693 0 00.657-1.971v-6.851a.124.124 0 00-.141-.141h-1.035a.124.124 0 00-.141.141v6.9c0 .892-.422 1.361-1.267 1.361h-.375a.124.124 0 00-.141.141v.939c-.044.091.003.138.097.138z"/><path data-name="Path 52" d="M58.564 41.343v.425c0 .094.047.094.094.094h3.238a.1.1 0 00.094-.094v-.422c0-.094-.047-.094-.094-.094h-1.642l-.375-.375a.943.943 0 01-.188-.61 1.121 1.121 0 01.235-.657.787.787 0 01.657-.282 1.37 1.37 0 01.422.094.631.631 0 01.328.282c.047.047.094.047.188-.047l.328-.282a.088.088 0 000-.141 1.147 1.147 0 00-.516-.422 1.946 1.946 0 00-.751-.141 1.645 1.645 0 00-.751.141 2.083 2.083 0 00-.516.375 1.119 1.119 0 00-.282.516 2.422 2.422 0 00-.094.516 2.356 2.356 0 00.094.563 3.721 3.721 0 00.188.422h-.563c-.094.045-.094.045-.094.139z"/><path data-name="Path 53" d="M56.5 37.588h6.523a1.761 1.761 0 001.408-.469 2.293 2.293 0 00.422-1.5v-8.683a.124.124 0 00-.141-.141H63.68a.124.124 0 00-.141.141v8.541a.849.849 0 01-.188.657.748.748 0 01-.563.188h-1.876v-7.134a.124.124 0 00-.141-.141h-1.032a.124.124 0 00-.141.141v7.133h-3.144a.124.124 0 00-.141.141v.939c-.001.14.046.187.187.187z"/><path data-name="Path 54" d="M67.246 37.588h1.032a.124.124 0 00.141-.141V26.936a.124.124 0 00-.141-.141h-1.032a.124.124 0 00-.141.141V37.4c0 .141.047.188.141.188z"/><path data-name="Path 55" d="M80.714 43.454a.124.124 0 00.141-.141V42.14a.124.124 0 00-.141-.141h-1.079a.124.124 0 00-.141.141v1.173a.124.124 0 00.141.141z"/><path data-name="Path 56" d="M110.559 36.931a2.479 2.479 0 00.422-.939 5.923 5.923 0 00.141-1.408 4.951 4.951 0 00-.188-1.455 2.56 2.56 0 00-.61-1.173 2.738 2.738 0 00-1.173-.8 5 5 0 00-1.83-.282 7.145 7.145 0 00-1.971.282 8.38 8.38 0 00-1.736.7v-4.88a.124.124 0 00-.141-.141h-1.032a.124.124 0 00-.141.141v8.541a.849.849 0 01-.188.657.748.748 0 01-.563.188h-6.288a1.686 1.686 0 01-1.032-.282 1 1 0 01-.375-.8V31.3a.124.124 0 00-.141-.141H92.68a.124.124 0 00-.141.141v4.223a.849.849 0 01-.188.657.748.748 0 01-.563.188h-7.79a5.2 5.2 0 01-.892-.094 3.271 3.271 0 01-.892-.282c-.282-.141-.61-.235-.939-.375a8.458 8.458 0 00-.985-.375c-.094-.047-.141 0-.188.094l-.328.939c-.047.094 0 .141.094.188.516.188 1.032.375 1.455.516a7.731 7.731 0 011.032.422 2.355 2.355 0 01.657.469.988.988 0 01.235.61.965.965 0 01-.375.7 2.271 2.271 0 01-1.314.282h-3.52a3.572 3.572 0 01-.985-.141 2.319 2.319 0 01-.845-.375 2.078 2.078 0 01-.563-.7 2.447 2.447 0 01-.235-1.079 3.366 3.366 0 01.282-1.361 7.552 7.552 0 01.563-1.079c.047-.094.047-.141-.047-.188l-.892-.469a.209.209 0 00-.235 0 5.25 5.25 0 00-.7 1.455 5.712 5.712 0 00-.328 1.783 3.288 3.288 0 00.985 2.534 4 4 0 002.816.939h3.707a4.09 4.09 0 001.408-.188 3.5 3.5 0 00.939-.469 2.281 2.281 0 00.516-.657 2.125 2.125 0 00.141-.751 2.77 2.77 0 00-.094-.657c-.094-.188-.141-.328-.188-.422h7.649a1.63 1.63 0 001.642-.845 1.426 1.426 0 00.563.61 1.786 1.786 0 00.892.188h6.664a2.473 2.473 0 001.079-.188.585.585 0 00.516.188h5.3a3.543 3.543 0 001.079-.141 1.8 1.8 0 00.892-.518zm-.939-1.5a1.03 1.03 0 01-.235.563.683.683 0 01-.422.282 2.941 2.941 0 01-.751.094h-4.692a4.108 4.108 0 00.094-.751v-2.536c.235-.094.469-.235.751-.328s.563-.235.892-.328a6.862 6.862 0 01.939-.235 7 7 0 01.985-.094 2.792 2.792 0 011.173.188 1.718 1.718 0 01.751.469 2.162 2.162 0 01.422.8 3.659 3.659 0 01.141 1.032 4.829 4.829 0 01-.048.843z"/><path data-name="Path 57" d="M78.79 43.454a.124.124 0 00.141-.141V42.14a.124.124 0 00-.141-.141h-1.079a.124.124 0 00-.141.141v1.173a.124.124 0 00.141.141z"/><path data-name="Path 58" d="M92.587 29.517h1.079a.124.124 0 00.141-.141v-1.173a.124.124 0 00-.141-.141h-1.079a.124.124 0 00-.141.141v1.173c-.047.094.047.141.141.141z"/><path data-name="Path 59" d="M113.657 36.884a2.3 2.3 0 00.939.516 5.14 5.14 0 001.267.188h1.689v.422a3.265 3.265 0 01-.094.751 1.686 1.686 0 01-.328.469 1.468 1.468 0 01-.469.235 2.378 2.378 0 01-.61.094h-1.924a.124.124 0 00-.141.141v.939a.124.124 0 00.141.141h1.971a4.106 4.106 0 001.126-.141 2.46 2.46 0 00.845-.469 2.662 2.662 0 00.563-.845 3.28 3.28 0 00.188-1.267v-.375h5.772a1.761 1.761 0 001.408-.469 2.292 2.292 0 00.422-1.5v-8.778a.124.124 0 00-.141-.141h-1.032a.124.124 0 00-.141.141v8.541a.849.849 0 01-.188.657.748.748 0 01-.563.188h-5.537v-2.066a3.662 3.662 0 00-.8-2.628 2.839 2.839 0 00-2.206-.8 3.267 3.267 0 00-1.173.235 2.8 2.8 0 00-.985.657 2.655 2.655 0 00-.657 1.126 5.44 5.44 0 00-.235 1.6 4.5 4.5 0 00.188 1.5 7 7 0 00.705.938zm.985-4.223a1.558 1.558 0 011.267-.657 1.374 1.374 0 011.267.563 2.753 2.753 0 01.375 1.642v2.065h-1.6a1.97 1.97 0 01-1.361-.422 2.17 2.17 0 01-.469-1.549 2.968 2.968 0 01.521-1.642z"/><path data-name="Path 60" d="M129.001 37.588h1.032a.124.124 0 00.141-.141V26.936a.124.124 0 00-.141-.141h-1.032a.124.124 0 00-.141.141V37.4c-.047.141 0 .188.141.188z"/><path data-name="Path 61" d="M137.026 29.517h1.079a.124.124 0 00.141-.141v-1.173a.124.124 0 00-.141-.141h-1.079a.124.124 0 00-.141.141v1.173q-.07.141.141.141z"/><path data-name="Path 62" d="M135.243 40.732h.422a2.726 2.726 0 001.924-.657 2.693 2.693 0 00.657-1.971v-1.027a1.589 1.589 0 001.267.516h10.183a3.225 3.225 0 001.032-.141 1.579 1.579 0 001.126-1.267 5.106 5.106 0 00.141-1.314v-.939a2.747 2.747 0 00-.751-2.159 2.818 2.818 0 00-1.971-.7h-1.408l2.863-3.332c.047-.094 0-.141-.047-.235l-.751-.657c-.094-.047-.141-.047-.188.047l-3.473 4.083-.094.094a.172.172 0 00-.047.141v.892a.124.124 0 00.141.141h2.534c1.22 0 1.783.516 1.783 1.6v.985a3.107 3.107 0 01-.047.7.884.884 0 01-.188.422.907.907 0 01-.422.235 2.841 2.841 0 01-.7.094h-9.573a1.686 1.686 0 01-1.032-.282.882.882 0 01-.375-.8v-3.995a.124.124 0 00-.141-.141h-1.086a.124.124 0 00-.141.141v6.9c0 .892-.422 1.361-1.267 1.361h-.375a.124.124 0 00-.141.141v.939c-.043.138.004.185.145.185z"/><path data-name="Path 63" d="M167.247 37.495a2.8 2.8 0 00.985-.657 1.618 1.618 0 00.375.422 1.467 1.467 0 00.469.235 1.687 1.687 0 00.516.094c.188 0 .328.047.469.047h3.285a1.761 1.761 0 001.408-.469 2.292 2.292 0 00.422-1.5v-8.731a.124.124 0 00-.142-.141h-1.03a.124.124 0 00-.141.141v8.541a.849.849 0 01-.188.657.748.748 0 01-.563.188h-3.191a.927.927 0 01-.657-.282 1.551 1.551 0 01-.328-1.079.8.8 0 01.047-.328v-.328a3.662 3.662 0 00-.8-2.628 2.839 2.839 0 00-2.206-.8 3.019 3.019 0 00-2.206.8 3.741 3.741 0 00-.8 2.628v.657a2.841 2.841 0 01-.094.7.908.908 0 01-.235.422.842.842 0 01-.329.235.87.87 0 01-.328.094h-4.451a1.686 1.686 0 01-1.032-.282.882.882 0 01-.375-.8v-3.984a.124.124 0 00-.141-.141h-1.126a.124.124 0 00-.141.141v6.9c0 .892-.422 1.361-1.267 1.361h-.375a.124.124 0 00-.141.141v.939a.124.124 0 00.141.141h.422a2.726 2.726 0 001.924-.657 2.693 2.693 0 00.657-1.971v-1.129a1.589 1.589 0 001.267.516h4.505a4.136 4.136 0 00.985-.141 1.292 1.292 0 00.845-.657 2.04 2.04 0 00.985.657 3.652 3.652 0 001.314.235 3.769 3.769 0 001.266-.187zm-3-3.238a2.84 2.84 0 01.422-1.642 1.815 1.815 0 012.628 0 2.74 2.74 0 01.422 1.642 2.554 2.554 0 01-.422 1.642 1.93 1.93 0 01-2.628 0 2.554 2.554 0 01-.426-1.643z"/><path data-name="Path 64" d="M177.571 37.588h1.032a.124.124 0 00.141-.141V26.936a.124.124 0 00-.141-.141h-1.032a.124.124 0 00-.141.141V37.4c0 .141.047.188.141.188z"/><path data-name="Path 65" d="M6.71 61.005H5.631a.124.124 0 00-.141.141v1.173a.124.124 0 00.141.141H6.71a.124.124 0 00.141-.141v-1.173a.124.124 0 00-.141-.141z"/><path data-name="Path 66" d="M4.786 62.46a.124.124 0 00.141-.141v-1.173a.124.124 0 00-.141-.141H3.707a.124.124 0 00-.141.141v1.173a.124.124 0 00.141.141z"/><path data-name="Path 67" d="M17.832 50.118H16.8a.124.124 0 00-.141.141v4.223a.849.849 0 01-.188.657.748.748 0 01-.563.188h-5.819a5.2 5.2 0 01-.892-.094 3.271 3.271 0 01-.892-.282c-.282-.141-.61-.235-.939-.375a8.46 8.46 0 00-.985-.375c-.094-.047-.141 0-.188.094l-.328.939c-.047.094 0 .141.094.188.516.188 1.032.375 1.455.516a7.731 7.731 0 011.032.422 2.356 2.356 0 01.657.469.988.988 0 01.235.61.965.965 0 01-.375.7 2.271 2.271 0 01-1.314.282h-3.66A3.572 3.572 0 013 58.283a2.319 2.319 0 01-.845-.375 2.078 2.078 0 01-.563-.7 2.447 2.447 0 01-.235-1.079 3.366 3.366 0 01.282-1.361 7.554 7.554 0 01.563-1.079c.047-.094.047-.141-.047-.188l-.892-.469a.209.209 0 00-.235 0 5.25 5.25 0 00-.7 1.455A5.711 5.711 0 000 56.265a3.288 3.288 0 00.985 2.534 4 4 0 002.816.939h3.707a4.09 4.09 0 001.408-.188 3.5 3.5 0 00.939-.469 2.282 2.282 0 00.516-.657 2.125 2.125 0 00.141-.751 2.77 2.77 0 00-.094-.657c-.094-.188-.141-.328-.188-.422h5.819a1.761 1.761 0 001.408-.469 2.292 2.292 0 00.422-1.5v-4.317c.141-.143.047-.19-.047-.19z"/><path data-name="Path 68" d="M17.879 47.067H16.8a.124.124 0 00-.141.141v1.173a.124.124 0 00.141.141h1.079a.124.124 0 00.141-.141v-1.173a.124.124 0 00-.141-.141z"/><path data-name="Path 69" d="M20.038 56.593h1.032a.124.124 0 00.141-.141V45.988a.124.124 0 00-.141-.141h-1.032a.124.124 0 00-.141.141v10.465a.124.124 0 00.141.14z"/><path data-name="Path 70" d="M36.368 58.001h-1.079a.124.124 0 00-.141.141v1.173a.124.124 0 00.141.141h1.079a.124.124 0 00.141-.141v-1.126c.047-.141-.047-.188-.141-.188z"/><path data-name="Path 71" d="M45.425 59.55a.124.124 0 00.141-.141v-1.173a.124.124 0 00-.141-.141h-1.079a.124.124 0 00-.141.141v1.173a.124.124 0 00.141.141z"/><path data-name="Path 72" d="M42.234 58.236v1.173a.124.124 0 00.141.141h1.079a.124.124 0 00.141-.141v-1.173a.124.124 0 00-.141-.141h-1.079q-.141-.07-.141.141z"/><path data-name="Path 73" d="M99.531 45.8h-1.032a.124.124 0 00-.141.141v8.541a.849.849 0 01-.188.657.748.748 0 01-.563.188h-8.118a1.686 1.686 0 01-1.032-.282 1 1 0 01-.375-.8v-3.989a.124.124 0 00-.141-.141h-1.032a.124.124 0 00-.141.141v4.223a.849.849 0 01-.188.657.748.748 0 01-.563.188h-.375a2.237 2.237 0 01-1.032-.235.805.805 0 01-.375-.751v-2.722a.124.124 0 00-.141-.141h-1.032a.124.124 0 00-.141.141v2.863a.849.849 0 01-.188.657.748.748 0 01-.563.188h-.375a1.785 1.785 0 01-1.032-.282.882.882 0 01-.375-.8v-2.628a.124.124 0 00-.141-.141h-1.035a.124.124 0 00-.141.141v2.863a.849.849 0 01-.188.657.748.748 0 01-.563.188H46.832a1.686 1.686 0 01-1.032-.282 1 1 0 01-.375-.8v-3.989a.124.124 0 00-.141-.141h-1.033a.124.124 0 00-.141.141v4.223a.849.849 0 01-.188.657.748.748 0 01-.563.188h-4.645a1.686 1.686 0 01-1.032-.282 1 1 0 01-.375-.8v-3.989a.124.124 0 00-.141-.141h-1.033a.124.124 0 00-.141.141v4.223a.849.849 0 01-.188.657.748.748 0 01-.563.188h-7.414a1.686 1.686 0 01-1.032-.282.882.882 0 01-.375-.8v-3.989a.124.124 0 00-.141-.141h-1.033a.124.124 0 00-.141.141v6.9c0 .892-.422 1.361-1.267 1.361h-.375a.124.124 0 00-.141.141v.939a.124.124 0 00.141.141h.422a2.726 2.726 0 001.924-.657 2.693 2.693 0 00.657-1.971v-1.032a1.589 1.589 0 001.267.516h7.789a1.63 1.63 0 001.642-.845 1.426 1.426 0 00.563.61 1.786 1.786 0 00.892.188h5.021a1.629 1.629 0 001.642-.845 1.283 1.283 0 00.61.61 1.786 1.786 0 00.892.188h31.863a1.63 1.63 0 001.642-.845 1.426 1.426 0 00.563.61 1.786 1.786 0 00.892.188h.751a1.63 1.63 0 001.642-.845 1.426 1.426 0 00.563.61 1.786 1.786 0 00.892.188h.751a1.63 1.63 0 001.642-.845 1.284 1.284 0 00.61.61 1.786 1.786 0 00.892.188h8.494a1.761 1.761 0 001.408-.469 2.292 2.292 0 00.422-1.5v-8.4c-.139-.132-.189-.179-.28-.179zm-56.309 9.526zm1.736 0z"/><path data-name="Path 75" d="M103.051 45.8h-1.032a.124.124 0 00-.141.141v10.465a.124.124 0 00.141.141h1.032a.124.124 0 00.141-.141V45.988c.047-.141 0-.188-.141-.188z"/><path data-name="Path 76" d="M112.577 51.056h1.079a.124.124 0 00.141-.141v-1.173a.124.124 0 00-.141-.141h-1.079a.124.124 0 00-.141.141v1.173a.124.124 0 00.141.141z"/><path data-name="Path 77" d="M161.006 49.836a3.019 3.019 0 00-2.206.8 3.741 3.741 0 00-.8 2.628v.657a2.84 2.84 0 01-.094.7.907.907 0 01-.235.422.842.842 0 01-.328.235.87.87 0 01-.328.094h-39.182a1.686 1.686 0 01-1.032-.282.882.882 0 01-.375-.8v-2.675a.124.124 0 00-.141-.141h-1.032a.124.124 0 00-.141.141v4.646a2.024 2.024 0 01-.657 1.689 2.639 2.639 0 01-1.642.516 5.171 5.171 0 01-.845-.094 2.49 2.49 0 01-.8-.375 3 3 0 01-.61-.7 2.513 2.513 0 01-.235-1.126 3.366 3.366 0 01.282-1.361 7.557 7.557 0 01.563-1.079c.047-.094.047-.141-.047-.188l-.892-.469a.209.209 0 00-.235 0 5.249 5.249 0 00-.7 1.455 5.711 5.711 0 00-.329 1.783 3.891 3.891 0 00.282 1.5 2.976 2.976 0 00.751 1.079 3.178 3.178 0 001.173.657 5.359 5.359 0 001.549.235 3.872 3.872 0 002.769-.939 3.261 3.261 0 00.939-2.534v-.188a1.589 1.589 0 001.267.516h39.278a4.136 4.136 0 00.985-.141 1.292 1.292 0 00.845-.657 2.04 2.04 0 00.986.657 3.651 3.651 0 001.314.235 3.6 3.6 0 001.267-.188 2.179 2.179 0 00.939-.61 2.417 2.417 0 00.61-1.079 4.889 4.889 0 00.235-1.549 3.662 3.662 0 00-.8-2.628 3.3 3.3 0 00-2.348-.842zm1.267 5.115a1.93 1.93 0 01-2.628 0 2.554 2.554 0 01-.422-1.642 2.839 2.839 0 01.422-1.642 1.815 1.815 0 012.628 0 3.405 3.405 0 010 3.285z"/><path data-name="Path 78" d="M167.763 46.458v.425c0 .094.047.094.094.094h3.238a.1.1 0 00.094-.094v-.422c0-.094-.047-.094-.094-.094h-1.642l-.375-.375a.943.943 0 01-.188-.61 1.121 1.121 0 01.235-.657.787.787 0 01.657-.282 1.37 1.37 0 01.422.094.631.631 0 01.328.282c.047.047.094.047.188-.047l.329-.282a.088.088 0 000-.141 1.147 1.147 0 00-.516-.422 1.945 1.945 0 00-.751-.141 1.645 1.645 0 00-.751.141 2.083 2.083 0 00-.516.375 1.119 1.119 0 00-.282.516 2.423 2.423 0 00-.094.516 2.357 2.357 0 00.094.563 1.838 1.838 0 00.188.422h-.61c-.001.045-.048.045-.048.139z"/><path data-name="Path 79" d="M178.603 45.8h-1.032a.124.124 0 00-.141.141v8.541a.849.849 0 01-.188.657.748.748 0 01-.563.188h-1.173a1.848 1.848 0 01-.939-.235.97.97 0 01-.469-.657v-8.447a.124.124 0 00-.141-.141h-1.032a.124.124 0 00-.141.141v8.541a.849.849 0 01-.188.657.748.748 0 01-.563.188h-1.876V48.24a.124.124 0 00-.141-.141h-1.032a.124.124 0 00-.141.141v7.133h-3.144a.124.124 0 00-.141.141v.939a.124.124 0 00.141.141h6.523a1.635 1.635 0 001.642-.8 1.284 1.284 0 00.61.61 1.787 1.787 0 00.892.188h1.549a1.761 1.761 0 001.408-.469 2.293 2.293 0 00.422-1.5v-8.635c-.002-.141-.049-.188-.142-.188z"/><path data-name="Path 80" d="M3.988 71.657c-1.173-.469-1.689-.751-1.689-1.455 0-.516.422-1.079 1.455-1.079a3.641 3.641 0 011.783.422l.375-1.314a4.762 4.762 0 00-2.112-.422c-1.924 0-3.144 1.079-3.144 2.534 0 1.267.939 2.065 2.393 2.581 1.126.422 1.549.8 1.549 1.455 0 .7-.563 1.22-1.6 1.22a4.7 4.7 0 01-2.159-.563l-.37 1.361a5.279 5.279 0 002.393.563c2.3 0 3.379-1.22 3.379-2.675.047-1.267-.704-2.018-2.253-2.628z"/><path data-name="Path 81" d="M22.291 67.997l-2.863 8.869h1.689l.751-2.487h2.816l.8 2.487h1.734l-2.863-8.869zm-.141 5.115l.7-2.206c.141-.516.282-1.126.422-1.642h.047c.141.516.282 1.126.469 1.642l.7 2.159H22.15z"/><path data-name="Path 82" d="M45.61 73.159c0 1.736-.7 2.534-1.877 2.534-1.079 0-1.83-.8-1.83-2.534v-5.162H40.31v5.068c0 2.769 1.314 3.942 3.379 3.942 2.159 0 3.52-1.22 3.52-3.942v-5.068H45.61v5.162z"/><path data-name="Path 83" d="M67.621 68.935a5.53 5.53 0 00-3.613-1.032 20.108 20.108 0 00-2.581.188v8.681c.516.047 1.267.094 2.206.094a5.792 5.792 0 003.989-1.22 4.513 4.513 0 001.361-3.52 3.924 3.924 0 00-1.362-3.191zm-3.66 6.711a5.109 5.109 0 01-.892-.047v-6.335a5.879 5.879 0 011.126-.094 2.831 2.831 0 013.144 3.1 3.108 3.108 0 01-3.378 3.376z"/><path data-name="Rectangle 29" d="M82.732 67.997h1.596v8.869h-1.596z"/><path data-name="Path 84" d="M117.973 69.17a4.4 4.4 0 011.736.328l.328-1.267a4.87 4.87 0 00-2.159-.375 4.445 4.445 0 00-4.74 4.693 4.177 4.177 0 004.5 4.458 4.942 4.942 0 002.3-.422l-.282-1.267a4.837 4.837 0 01-1.783.328 2.91 2.91 0 01-3.1-3.191 3.077 3.077 0 013.2-3.285z"/><path data-name="Path 85" d="M135.336 72.924h3.332v-1.361h-3.332v-2.252h3.52v-1.314h-5.162v8.822h5.35v-1.314h-3.707z"/><path data-name="Path 86" d="M157.157 72.643a2.42 2.42 0 001.6-2.253 2.329 2.329 0 00-.751-1.783 4.023 4.023 0 00-2.722-.7 16.668 16.668 0 00-2.44.188v8.728h1.6v-3.62h.8c.939 0 1.361.375 1.6 1.549a11.4 11.4 0 00.61 2.112h1.642a16.645 16.645 0 01-.7-2.487 2.1 2.1 0 00-1.239-1.734zm-1.783-.61h-.934v-2.816a3.961 3.961 0 01.985-.094c1.032 0 1.736.469 1.736 1.408-.004.891-.661 1.502-1.787 1.502z"/><path data-name="Path 87" d="M171.939 69.358h2.534v7.461h1.6v-7.461h2.581v-1.361h-6.715z"/></g></svg>